# This file uses centimeters as units for non-parametric coordinates.

mtllib vortexGEO2.mtl
g default
v 0.951057 0.309017 -1.000000
v 0.809018 0.587786 -1.000000
v 0.587786 0.809017 -1.000000
v 0.309017 0.951057 -1.000000
v 0.000000 1.000000 -1.000000
v -0.309017 0.951057 -1.000000
v -0.587785 0.809017 -1.000000
v -0.809017 0.587785 -1.000000
v -0.951057 0.309017 -1.000000
v -1.000000 0.000000 -1.000000
v -0.951057 -0.309017 -1.000000
v -0.809017 -0.587785 -1.000000
v -0.587785 -0.809017 -1.000000
v -0.309017 -0.951057 -1.000000
v -0.000000 -1.000000 -1.000000
v 0.309017 -0.951057 -1.000000
v 0.587785 -0.809017 -1.000000
v 0.809017 -0.587785 -1.000000
v 0.951057 -0.309017 -1.000000
v 1.000000 0.000000 -1.000000
v 0.000353 0.000115 -1.000000
v 0.000300 0.000218 -1.000000
v 0.000218 0.000300 -1.000000
v 0.000115 0.000353 -1.000000
v 0.000000 0.000371 -1.000000
v -0.000115 0.000353 -1.000000
v -0.000218 0.000300 -1.000000
v -0.000300 0.000218 -1.000000
v -0.000353 0.000115 -1.000000
v -0.000371 -0.000000 -1.000000
v -0.000353 -0.000115 -1.000000
v -0.000300 -0.000218 -1.000000
v -0.000218 -0.000300 -1.000000
v -0.000115 -0.000353 -1.000000
v 0.000000 -0.000371 -1.000000
v 0.000115 -0.000353 -1.000000
v 0.000218 -0.000300 -1.000000
v 0.000300 -0.000218 -1.000000
v 0.000353 -0.000115 -1.000000
v 0.000371 -0.000000 -1.000000
vt 0.003635 0.002747
vt 0.053272 0.002747
vt 0.102908 0.002747
vt 0.152545 0.002747
vt 0.202181 0.002747
vt 0.251818 0.002747
vt 0.301454 0.002747
vt 0.351090 0.002747
vt 0.400727 0.002747
vt 0.450363 0.002747
vt 0.500000 0.002747
vt 0.549636 0.002747
vt 0.599273 0.002747
vt 0.648909 0.002747
vt 0.698546 0.002747
vt 0.748182 0.002747
vt 0.797819 0.002747
vt 0.847455 0.002747
vt 0.897092 0.002747
vt 0.946728 0.002747
vt 0.996365 0.002747
vt 0.003635 0.997253
vt 0.053272 0.997253
vt 0.102908 0.997253
vt 0.152545 0.997253
vt 0.202181 0.997253
vt 0.251818 0.997253
vt 0.301454 0.997253
vt 0.351090 0.997253
vt 0.400727 0.997253
vt 0.450363 0.997253
vt 0.500000 0.997253
vt 0.549636 0.997253
vt 0.599273 0.997253
vt 0.648909 0.997253
vt 0.698546 0.997253
vt 0.748182 0.997253
vt 0.797819 0.997253
vt 0.847455 0.997253
vt 0.897092 0.997253
vt 0.946728 0.997253
vt 0.996365 0.997253
vn 0.000000 0.000000 1.000000
vn 0.000000 0.000000 1.000000
vn 0.000000 0.000000 1.000000
vn 0.000000 0.000000 1.000000
vn 0.000000 0.000000 1.000000
vn 0.000000 0.000000 1.000000
vn 0.000000 0.000000 1.000000
vn 0.000000 0.000000 1.000000
vn 0.000000 0.000000 1.000000
vn 0.000000 0.000000 1.000000
vn 0.000000 0.000000 1.000000
vn 0.000000 0.000000 1.000000
vn 0.000000 0.000000 1.000000
vn 0.000000 0.000000 1.000000
vn 0.000000 0.000000 1.000000
vn 0.000000 0.000000 1.000000
vn 0.000000 0.000000 1.000000
vn 0.000000 0.000000 1.000000
vn 0.000000 0.000000 1.000000
vn 0.000000 0.000000 1.000000
vn 0.000000 0.000000 1.000000
vn 0.000000 0.000000 1.000000
vn 0.000000 0.000000 1.000000
vn 0.000000 0.000000 1.000000
vn 0.000000 0.000000 1.000000
vn 0.000000 0.000000 1.000000
vn 0.000000 0.000000 1.000000
vn 0.000000 0.000000 1.000000
vn 0.000000 -0.000000 1.000000
vn 0.000000 -0.000000 1.000000
vn 0.000000 -0.000000 1.000000
vn 0.000000 -0.000000 1.000000
vn 0.000000 0.000000 1.000000
vn 0.000000 0.000000 1.000000
vn 0.000000 0.000000 1.000000
vn 0.000000 0.000000 1.000000
vn 0.000000 0.000000 1.000000
vn 0.000000 0.000000 1.000000
vn 0.000000 0.000000 1.000000
vn 0.000000 0.000000 1.000000
s 1
g pCylinder1
usemtl initialShadingGroup
f 1/1/1 2/2/2 22/23/3 21/22/4
f 2/2/2 3/3/5 23/24/6 22/23/3
f 3/3/5 4/4/7 24/25/8 23/24/6
f 4/4/7 5/5/9 25/26/10 24/25/8
f 5/5/9 6/6/11 26/27/12 25/26/10
f 6/6/11 7/7/13 27/28/14 26/27/12
f 7/7/13 8/8/15 28/29/16 27/28/14
f 8/8/15 9/9/17 29/30/18 28/29/16
f 9/9/17 10/10/19 30/31/20 29/30/18
f 10/10/19 11/11/21 31/32/22 30/31/20
f 11/11/21 12/12/23 32/33/24 31/32/22
f 12/12/23 13/13/25 33/34/26 32/33/24
f 13/13/25 14/14/27 34/35/28 33/34/26
f 14/14/27 15/15/29 35/36/30 34/35/28
f 15/15/29 16/16/31 36/37/32 35/36/30
f 16/16/31 17/17/33 37/38/34 36/37/32
f 17/17/33 18/18/35 38/39/36 37/38/34
f 18/18/35 19/19/37 39/40/38 38/39/36
f 19/19/37 20/20/39 40/41/40 39/40/38
f 20/20/39 1/21/1 21/42/4 40/41/40
